<svg width="17" height="21" viewBox="0 0 17 21" fill="none" xmlns="http://www.w3.org/2000/svg">
<path d="M2.0448 20.6765C1.4948 20.6765 1.02413 20.4808 0.6328 20.0895C0.2408 19.6975 0.0447998 19.2265 0.0447998 18.6765V6.67651C0.0447998 6.12651 0.2408 5.65585 0.6328 5.26451C1.02413 4.87251 1.4948 4.67651 2.0448 4.67651H4.0448C4.0448 3.57651 4.43647 2.63485 5.2198 1.85151C6.00313 1.06818 6.9448 0.676514 8.0448 0.676514C9.1448 0.676514 10.0865 1.06818 10.8698 1.85151C11.6531 2.63485 12.0448 3.57651 12.0448 4.67651H14.0448C14.5948 4.67651 15.0658 4.87251 15.4578 5.26451C15.8491 5.65585 16.0448 6.12651 16.0448 6.67651V18.6765C16.0448 19.2265 15.8491 19.6975 15.4578 20.0895C15.0658 20.4808 14.5948 20.6765 14.0448 20.6765H2.0448ZM2.0448 18.6765H14.0448V6.67651H12.0448V8.67651C12.0448 8.95985 11.9491 9.19718 11.7578 9.38851C11.5658 9.58051 11.3281 9.67651 11.0448 9.67651C10.7615 9.67651 10.5241 9.58051 10.3328 9.38851C10.1408 9.19718 10.0448 8.95985 10.0448 8.67651V6.67651H6.0448V8.67651C6.0448 8.95985 5.94913 9.19718 5.7578 9.38851C5.5658 9.58051 5.32813 9.67651 5.0448 9.67651C4.76147 9.67651 4.52413 9.58051 4.3328 9.38851C4.1408 9.19718 4.0448 8.95985 4.0448 8.67651V6.67651H2.0448V18.6765ZM6.0448 4.67651H10.0448C10.0448 4.12651 9.84913 3.65585 9.4578 3.26451C9.0658 2.87251 8.5948 2.67651 8.0448 2.67651C7.4948 2.67651 7.02413 2.87251 6.6328 3.26451C6.2408 3.65585 6.0448 4.12651 6.0448 4.67651ZM2.0448 18.6765V6.67651V18.6765Z" fill="#F8F8F8"/>
</svg>
