<svg width="38" height="31" viewBox="0 0 38 31" fill="none" xmlns="http://www.w3.org/2000/svg">
<path d="M33.7949 7.90417H3.79492V4.15417H33.7949M33.7949 26.6542H3.79492V15.4042H33.7949M33.7949 0.404175H3.79492C1.71367 0.404175 0.0449219 2.07292 0.0449219 4.15417V26.6542C0.0449219 27.6487 0.44001 28.6026 1.14327 29.3058C1.84653 30.0091 2.80036 30.4042 3.79492 30.4042H33.7949C34.7895 30.4042 35.7433 30.0091 36.4466 29.3058C37.1498 28.6026 37.5449 27.6487 37.5449 26.6542V4.15417C37.5449 3.15961 37.1498 2.20579 36.4466 1.50252C35.7433 0.799263 34.7895 0.404175 33.7949 0.404175Z" fill="#7190FF"/>
</svg>
