<svg width="26" height="23" viewBox="0 0 26 23" fill="none" xmlns="http://www.w3.org/2000/svg">
<path d="M20.7495 17.8825C21.4126 17.8825 22.0484 18.1143 22.5173 18.5269C22.9861 18.9394 23.2495 19.499 23.2495 20.0825C23.2495 20.666 22.9861 21.2256 22.5173 21.6381C22.0484 22.0507 21.4126 22.2825 20.7495 22.2825C20.0865 22.2825 19.4506 22.0507 18.9817 21.6381C18.5129 21.2256 18.2495 20.666 18.2495 20.0825C18.2495 18.8615 19.362 17.8825 20.7495 17.8825ZM0.749512 0.282501H4.83701L6.01201 2.4825H24.4995C24.831 2.4825 25.149 2.59839 25.3834 2.80468C25.6178 3.01097 25.7495 3.29076 25.7495 3.5825C25.7495 3.7695 25.687 3.9565 25.5995 4.1325L21.1245 11.2495C20.6995 11.9205 19.8745 12.3825 18.937 12.3825H9.62451L8.49951 14.1755L8.46201 14.3075C8.46201 14.3804 8.49494 14.4504 8.55354 14.502C8.61215 14.5535 8.69163 14.5825 8.77451 14.5825H23.2495V16.7825H8.24951C7.58647 16.7825 6.95059 16.5507 6.48174 16.1381C6.0129 15.7256 5.74951 15.166 5.74951 14.5825C5.74951 14.1975 5.86201 13.8345 6.04951 13.5265L7.74951 10.8315L3.24951 2.4825H0.749512V0.282501ZM8.24951 17.8825C8.91255 17.8825 9.54844 18.1143 10.0173 18.5269C10.4861 18.9394 10.7495 19.499 10.7495 20.0825C10.7495 20.666 10.4861 21.2256 10.0173 21.6381C9.54844 22.0507 8.91255 22.2825 8.24951 22.2825C7.58647 22.2825 6.95059 22.0507 6.48174 21.6381C6.0129 21.2256 5.74951 20.666 5.74951 20.0825C5.74951 18.8615 6.86201 17.8825 8.24951 17.8825ZM19.4995 10.1825L22.9745 4.6825H7.17451L10.1245 10.1825H19.4995Z" fill="#1E1E1E"/>
</svg>
