<svg width="23" height="23" viewBox="0 0 23 23" fill="none" xmlns="http://www.w3.org/2000/svg">
<path d="M17.8719 17.8825C18.4553 17.8825 19.0149 18.1143 19.4275 18.5269C19.8401 18.9394 20.0719 19.499 20.0719 20.0825C20.0719 20.666 19.8401 21.2256 19.4275 21.6381C19.0149 22.0507 18.4553 22.2825 17.8719 22.2825C17.2884 22.2825 16.7288 22.0507 16.3162 21.6381C15.9036 21.2256 15.6719 20.666 15.6719 20.0825C15.6719 18.8615 16.6509 17.8825 17.8719 17.8825ZM0.271851 0.282501H3.86885L4.90285 2.4825H21.1719C21.4636 2.4825 21.7434 2.59839 21.9497 2.80468C22.156 3.01097 22.2719 3.29076 22.2719 3.5825C22.2719 3.7695 22.2169 3.9565 22.1399 4.1325L18.2019 11.2495C17.8279 11.9205 17.1019 12.3825 16.2769 12.3825H8.08185L7.09185 14.1755L7.05885 14.3075C7.05885 14.3804 7.08782 14.4504 7.1394 14.502C7.19097 14.5535 7.26092 14.5825 7.33385 14.5825H20.0719V16.7825H6.87185C6.28837 16.7825 5.7288 16.5507 5.31622 16.1381C4.90364 15.7256 4.67185 15.166 4.67185 14.5825C4.67185 14.1975 4.77085 13.8345 4.93585 13.5265L6.43185 10.8315L2.47185 2.4825H0.271851V0.282501ZM6.87185 17.8825C7.45533 17.8825 8.01491 18.1143 8.42749 18.5269C8.84007 18.9394 9.07185 19.499 9.07185 20.0825C9.07185 20.666 8.84007 21.2256 8.42749 21.6381C8.01491 22.0507 7.45533 22.2825 6.87185 22.2825C6.28837 22.2825 5.7288 22.0507 5.31622 21.6381C4.90364 21.2256 4.67185 20.666 4.67185 20.0825C4.67185 18.8615 5.65085 17.8825 6.87185 17.8825ZM16.7719 10.1825L19.8299 4.6825H5.92585L8.52185 10.1825H16.7719Z" fill="#F8F8F8"/>
</svg>
