<svg width="22" height="21" viewBox="0 0 22 21" fill="none" xmlns="http://www.w3.org/2000/svg">
<path d="M11.053 17.6247L10.944 17.7337L10.8241 17.6247C5.64698 12.9272 2.22464 9.82093 2.22464 6.67106C2.22464 4.49123 3.85951 2.85635 6.03935 2.85635C7.71782 2.85635 9.3527 3.94627 9.93036 5.42856H11.9576C12.5353 3.94627 14.1701 2.85635 15.8486 2.85635C18.0285 2.85635 19.6633 4.49123 19.6633 6.67106C19.6633 9.82093 16.241 12.9272 11.053 17.6247ZM15.8486 0.676514C13.9522 0.676514 12.132 1.55935 10.944 2.94354C9.75597 1.55935 7.93581 0.676514 6.03935 0.676514C2.6824 0.676514 0.0447998 3.30322 0.0447998 6.67106C0.0447998 10.7801 3.75052 14.1479 9.3636 19.2378L10.944 20.6765L12.5244 19.2378C18.1374 14.1479 21.8432 10.7801 21.8432 6.67106C21.8432 3.30322 19.2056 0.676514 15.8486 0.676514Z" fill="#F8F8F8"/>
</svg>
