<svg width="23" height="21" viewBox="0 0 23 21" fill="none" xmlns="http://www.w3.org/2000/svg">
<path d="M11.8822 3.80095C11.8157 3.73737 11.7273 3.70188 11.6353 3.70188C11.5434 3.70188 11.4549 3.73737 11.3885 3.80095L3.16971 11.6523C3.13481 11.6857 3.10704 11.7258 3.08809 11.7702C3.06913 11.8147 3.05939 11.8625 3.05944 11.9108L3.05811 19.2795C3.05811 19.6584 3.20862 20.0218 3.47652 20.2897C3.74443 20.5576 4.1078 20.7081 4.48668 20.7081H8.77686C8.9663 20.7081 9.14798 20.6328 9.28193 20.4989C9.41589 20.3649 9.49114 20.1832 9.49114 19.9938V13.9224C9.49114 13.8277 9.52877 13.7368 9.59575 13.6698C9.66272 13.6029 9.75356 13.5652 9.84829 13.5652H13.4197C13.5144 13.5652 13.6053 13.6029 13.6723 13.6698C13.7392 13.7368 13.7769 13.8277 13.7769 13.9224V19.9938C13.7769 20.1832 13.8521 20.3649 13.9861 20.4989C14.12 20.6328 14.3017 20.7081 14.4911 20.7081H18.7795C19.1584 20.7081 19.5218 20.5576 19.7897 20.2897C20.0576 20.0218 20.2081 19.6584 20.2081 19.2795V11.9108C20.2082 11.8625 20.1984 11.8147 20.1795 11.7702C20.1605 11.7258 20.1327 11.6857 20.0978 11.6523L11.8822 3.80095Z" fill="#7190FF"/>
<path d="M22.1213 10.1791L18.782 6.98445V2.13668C18.782 1.94724 18.7067 1.76556 18.5728 1.6316C18.4388 1.49765 18.2571 1.42239 18.0677 1.42239H15.9248C15.7354 1.42239 15.5537 1.49765 15.4198 1.6316C15.2858 1.76556 15.2106 1.94724 15.2106 2.13668V3.56525L12.6249 1.09293C12.3829 0.848286 12.0231 0.708107 11.6342 0.708107C11.2467 0.708107 10.8878 0.848286 10.6458 1.09337L1.1503 10.1782C0.872617 10.4461 0.837796 10.8867 1.09047 11.1769C1.15393 11.2501 1.23162 11.3097 1.31882 11.3519C1.40603 11.3942 1.50092 11.4183 1.59772 11.4227C1.69453 11.4271 1.79122 11.4118 1.88192 11.3777C1.97262 11.3436 2.05542 11.2913 2.1253 11.2242L11.3887 2.37239C11.4552 2.30881 11.5436 2.27333 11.6356 2.27333C11.7275 2.27333 11.816 2.30881 11.8824 2.37239L21.1467 11.2242C21.2832 11.355 21.466 11.4265 21.655 11.4228C21.8441 11.4191 22.0239 11.3406 22.1552 11.2045C22.4293 10.9206 22.4065 10.4519 22.1213 10.1791Z" fill="#7190FF"/>
</svg>
