<svg width="60" height="61" viewBox="0 0 60 61" fill="none" xmlns="http://www.w3.org/2000/svg">
<path fill-rule="evenodd" clip-rule="evenodd" d="M57.8357 0.443481C42.4157 0.460624 29.3185 8.94205 19.9714 17.5863H2.15995L0.0170898 19.7292V32.5863L0.64709 34.1035L4.89423 38.3506L4.89852 38.3892L22.0414 55.5321L22.08 55.5363L26.3614 59.8178L27.8742 60.4435H40.7314L42.8742 58.3006V40.4978C51.5271 31.1635 60 18.0706 59.9828 2.58634L57.8357 0.443481ZM4.30281 21.8721H15.63C12.1705 25.504 8.98326 29.386 6.09423 33.4863L4.30281 31.7035V21.8721ZM28.7314 56.1578L26.9314 54.3449C31.0401 51.4721 34.9294 48.2976 38.5671 44.8478V56.1578H28.7314ZM23.8328 51.2549L9.17138 36.6021C13.4228 30.4435 31.6414 6.25062 55.6371 4.79777C54.24 28.8492 29.9785 47.0249 23.8328 51.2549ZM12.8742 60.4435V56.1578H4.30281V47.5863H0.0170898V60.4435H12.8742ZM41.7942 27.5849C42.7411 26.1664 43.0856 24.4298 42.7521 22.7573C42.4185 21.0847 41.4342 19.6132 40.0157 18.6663C38.5971 17.7195 36.8606 17.375 35.188 17.7085C33.5155 18.0421 32.0439 19.0264 31.0971 20.4449C30.1503 21.8629 29.8055 23.5989 30.1387 25.271C30.4718 26.9432 31.4556 28.4145 32.8735 29.3613C34.2915 30.3082 36.0275 30.6529 37.6997 30.3198C39.3718 29.9866 40.8431 29.0029 41.79 27.5849H41.7942Z" fill="white"/>
</svg>
