<svg width="81" height="81" viewBox="0 0 81 81" fill="none" xmlns="http://www.w3.org/2000/svg">
<circle cx="40.0448" cy="40.6765" r="40" fill="#7190FF"/>
<path fill-rule="evenodd" clip-rule="evenodd" d="M58.6022 20.6765C48.3222 20.6879 39.5908 26.3422 33.3594 32.1051H21.4851L20.0565 33.5337V42.1051L20.4765 43.1165L23.3079 45.9479L23.3108 45.9737L34.7394 57.4022L34.7651 57.4051L37.6194 60.2594L38.6279 60.6765H47.1994L48.628 59.2479V47.3794C54.3965 41.1565 60.0451 32.4279 60.0337 22.1051L58.6022 20.6765ZM22.9137 34.9622H30.4651C28.1588 37.3836 26.034 39.9715 24.1079 42.7051L22.9137 41.5165V34.9622ZM39.1994 57.8194L37.9994 56.6108C40.7385 54.6956 43.3314 52.5793 45.7565 50.2794V57.8194H39.1994ZM35.9337 54.5508L26.1594 44.7822C28.9937 40.6765 41.1394 24.5479 57.1365 23.5794C56.2051 39.6137 40.0308 51.7308 35.9337 54.5508ZM28.6279 60.6765V57.8194H22.9137V52.1051H20.0565V60.6765H28.6279ZM47.908 38.7708C48.5392 37.8251 48.7689 36.6674 48.5465 35.5524C48.3241 34.4373 47.6679 33.4563 46.7222 32.8251C45.7766 32.1939 44.6188 31.9642 43.5038 32.1865C42.3888 32.4089 41.4077 33.0651 40.7765 34.0108C40.1453 34.9561 39.9155 36.1134 40.1376 37.2282C40.3597 38.343 41.0155 39.3239 41.9608 39.9551C42.9061 40.5863 44.0635 40.8161 45.1782 40.594C46.293 40.3719 47.2739 39.7161 47.9051 38.7708H47.908Z" fill="#F8F8F8"/>
</svg>
