<svg width="16" height="22" viewBox="0 0 16 22" fill="none" xmlns="http://www.w3.org/2000/svg">
<path d="M8 16.0778C7.46957 16.0778 6.96086 15.867 6.58579 15.492C6.21071 15.1169 6 14.6082 6 14.0778C6 12.9678 6.89 12.0778 8 12.0778C8.53043 12.0778 9.03914 12.2885 9.41421 12.6635C9.78929 13.0386 10 13.5473 10 14.0778C10 14.6082 9.78929 15.1169 9.41421 15.492C9.03914 15.867 8.53043 16.0778 8 16.0778ZM14 19.0778V9.07776H2V19.0778H14ZM14 7.07776C14.5304 7.07776 15.0391 7.28847 15.4142 7.66355C15.7893 8.03862 16 8.54733 16 9.07776V19.0778C16 19.6082 15.7893 20.1169 15.4142 20.492C15.0391 20.867 14.5304 21.0778 14 21.0778H2C1.46957 21.0778 0.960859 20.867 0.585786 20.492C0.210714 20.1169 0 19.6082 0 19.0778V9.07776C0 7.96776 0.89 7.07776 2 7.07776H3V5.07776C3 3.75168 3.52678 2.47991 4.46447 1.54222C5.40215 0.604543 6.67392 0.0777588 8 0.0777588C8.65661 0.0777588 9.30679 0.207088 9.91342 0.458361C10.52 0.709635 11.0712 1.07793 11.5355 1.54222C11.9998 2.00652 12.3681 2.55771 12.6194 3.16434C12.8707 3.77097 13 4.42115 13 5.07776V7.07776H14ZM8 2.07776C7.20435 2.07776 6.44129 2.39383 5.87868 2.95644C5.31607 3.51905 5 4.28211 5 5.07776V7.07776H11V5.07776C11 4.28211 10.6839 3.51905 10.1213 2.95644C9.55871 2.39383 8.79565 2.07776 8 2.07776Z" fill="#1e1e1e"/>
</svg>
