<svg width="23" height="31" viewBox="0 0 23 31" fill="none" xmlns="http://www.w3.org/2000/svg">
<path d="M11.4916 3.71907C14.6344 3.71907 17.2058 6.29049 17.2058 9.43335C17.2058 12.4334 14.2058 17.2905 11.4916 20.7191C8.77727 17.1476 5.77727 12.4334 5.77727 9.43335C5.77727 6.29049 8.3487 3.71907 11.4916 3.71907ZM11.4916 0.861923C6.77727 0.861923 2.92013 4.71907 2.92013 9.43335C2.92013 15.8619 11.4916 25.1476 11.4916 25.1476C11.4916 25.1476 20.063 15.7191 20.063 9.43335C20.063 4.71907 16.2058 0.861923 11.4916 0.861923ZM11.4916 6.57621C9.92013 6.57621 8.63442 7.86192 8.63442 9.43335C8.63442 11.0048 9.92013 12.2905 11.4916 12.2905C13.063 12.2905 14.3487 11.0048 14.3487 9.43335C14.3487 7.86192 13.063 6.57621 11.4916 6.57621ZM22.9201 25.1476C22.9201 28.2905 17.7773 30.8619 11.4916 30.8619C5.20585 30.8619 0.0629883 28.2905 0.0629883 25.1476C0.0629883 23.2905 1.77727 21.7191 4.49156 20.5762L5.3487 21.8619C3.92013 22.5762 2.92013 23.4334 2.92013 24.4334C2.92013 26.4334 6.77727 28.0048 11.4916 28.0048C16.2058 28.0048 20.063 26.4334 20.063 24.4334C20.063 23.4334 19.063 22.5762 17.4916 21.8619L18.3487 20.5762C21.2058 21.7191 22.9201 23.2905 22.9201 25.1476Z" fill="#7190FF"/>
</svg>
