<svg width="24" height="30" viewBox="0 0 24 30" fill="none" xmlns="http://www.w3.org/2000/svg">
<path d="M11.951 2.85714C15.0939 2.85714 17.6653 5.42857 17.6653 8.57143C17.6653 11.5714 14.6653 16.4286 11.951 19.8571C9.23675 16.2857 6.23675 11.5714 6.23675 8.57143C6.23675 5.42857 8.80818 2.85714 11.951 2.85714ZM11.951 0C7.23675 0 3.3796 3.85714 3.3796 8.57143C3.3796 15 11.951 24.2857 11.951 24.2857C11.951 24.2857 20.5225 14.8571 20.5225 8.57143C20.5225 3.85714 16.6653 0 11.951 0ZM11.951 5.71429C10.3796 5.71429 9.09389 7 9.09389 8.57143C9.09389 10.1429 10.3796 11.4286 11.951 11.4286C13.5225 11.4286 14.8082 10.1429 14.8082 8.57143C14.8082 7 13.5225 5.71429 11.951 5.71429ZM23.3796 24.2857C23.3796 27.4286 18.2367 30 11.951 30C5.66532 30 0.522461 27.4286 0.522461 24.2857C0.522461 22.4286 2.23675 20.8571 4.95103 19.7143L5.80818 21C4.3796 21.7143 3.3796 22.5714 3.3796 23.5714C3.3796 25.5714 7.23675 27.1429 11.951 27.1429C16.6653 27.1429 20.5225 25.5714 20.5225 23.5714C20.5225 22.5714 19.5225 21.7143 17.951 21L18.8082 19.7143C21.6653 20.8571 23.3796 22.4286 23.3796 24.2857Z" fill="#1E1E1E"/>
</svg>
