<svg width="25" height="31" viewBox="0 0 25 31" fill="none" xmlns="http://www.w3.org/2000/svg">
<path d="M3.04492 30.4799C2.21992 30.4799 1.51392 30.1864 0.926922 29.5994C0.338922 29.0114 0.0449219 28.3049 0.0449219 27.4799V9.47986C0.0449219 8.65486 0.338922 7.94886 0.926922 7.36186C1.51392 6.77386 2.21992 6.47986 3.04492 6.47986H6.04492C6.04492 4.82986 6.63242 3.41736 7.80742 2.24236C8.98242 1.06736 10.3949 0.479858 12.0449 0.479858C13.6949 0.479858 15.1074 1.06736 16.2824 2.24236C17.4574 3.41736 18.0449 4.82986 18.0449 6.47986H21.0449C21.8699 6.47986 22.5764 6.77386 23.1644 7.36186C23.7514 7.94886 24.0449 8.65486 24.0449 9.47986V27.4799C24.0449 28.3049 23.7514 29.0114 23.1644 29.5994C22.5764 30.1864 21.8699 30.4799 21.0449 30.4799H3.04492ZM3.04492 27.4799H21.0449V9.47986H18.0449V12.4799C18.0449 12.9049 17.9014 13.2609 17.6144 13.5479C17.3264 13.8359 16.9699 13.9799 16.5449 13.9799C16.1199 13.9799 15.7639 13.8359 15.4769 13.5479C15.1889 13.2609 15.0449 12.9049 15.0449 12.4799V9.47986H9.04492V12.4799C9.04492 12.9049 8.90142 13.2609 8.61442 13.5479C8.32642 13.8359 7.96992 13.9799 7.54492 13.9799C7.11992 13.9799 6.76392 13.8359 6.47692 13.5479C6.18892 13.2609 6.04492 12.9049 6.04492 12.4799V9.47986H3.04492V27.4799ZM9.04492 6.47986H15.0449C15.0449 5.65486 14.7514 4.94886 14.1644 4.36186C13.5764 3.77386 12.8699 3.47986 12.0449 3.47986C11.2199 3.47986 10.5139 3.77386 9.92692 4.36186C9.33892 4.94886 9.04492 5.65486 9.04492 6.47986Z" fill="#7190FF"/>
</svg>
