<svg width="21" height="20" viewBox="0 0 21 20" fill="none" xmlns="http://www.w3.org/2000/svg">
<path d="M16.3057 14.3911L20.5225 18.6069L19.1293 20L14.9135 15.7832C13.3449 17.0407 11.3938 17.7246 9.38335 17.7218C4.49214 17.7218 0.522461 13.7521 0.522461 8.86088C0.522461 3.96968 4.49214 0 9.38335 0C14.2746 0 18.2442 3.96968 18.2442 8.86088C18.2471 10.8713 17.5631 12.8224 16.3057 14.3911ZM14.3307 13.6605C15.5802 12.3756 16.278 10.6532 16.2751 8.86088C16.2751 5.05267 13.1906 1.96909 9.38335 1.96909C5.57513 1.96909 2.49155 5.05267 2.49155 8.86088C2.49155 12.6681 5.57513 15.7527 9.38335 15.7527C11.1756 15.7555 12.8981 15.0577 14.183 13.8082L14.3307 13.6605Z" fill="#1E1E1E"/>
</svg>
