<svg width="22" height="21" viewBox="0 0 22 21" fill="none" xmlns="http://www.w3.org/2000/svg">
<path d="M20.8525 18.9452C19.5039 16.6199 17.4103 14.8177 14.9103 13.8299C16.1373 12.9097 17.0436 11.6268 17.5009 10.1628C17.9582 8.69887 17.9433 7.12815 17.4583 5.67315C16.9733 4.21815 16.0428 2.95263 14.7986 2.05585C13.5544 1.15908 12.0596 0.676514 10.5259 0.676514C8.99217 0.676514 7.49734 1.15908 6.25313 2.05585C5.00892 2.95263 4.07841 4.21815 3.59341 5.67315C3.10841 7.12815 3.09351 8.69887 3.55081 10.1628C4.00811 11.6268 4.91444 12.9097 6.1414 13.8299C3.64145 14.8177 1.54785 16.6199 0.199285 18.9452C0.0462802 19.2104 0.00489566 19.5255 0.0842354 19.8212C0.163575 20.1169 0.35714 20.369 0.622348 20.522C0.887556 20.675 1.20268 20.7164 1.4984 20.6371C1.79412 20.5577 2.04622 20.3642 2.19922 20.099C3.04315 18.6374 4.25692 17.4237 5.71855 16.5799C7.18017 15.7361 8.83816 15.2919 10.5259 15.2919C12.2136 15.2919 13.8716 15.7361 15.3332 16.5799C16.7948 17.4237 18.0086 18.6374 18.8525 20.099C18.9546 20.2738 19.1005 20.419 19.2759 20.5202C19.4513 20.6214 19.65 20.675 19.8525 20.6759C20.0551 20.6775 20.2545 20.6243 20.4294 20.522C20.5608 20.4463 20.676 20.3455 20.7683 20.2252C20.8607 20.105 20.9285 19.9677 20.9678 19.8213C21.0071 19.6748 21.0171 19.5221 20.9973 19.3717C20.9775 19.2214 20.9283 19.0765 20.8525 18.9452ZM5.52604 7.98397C5.52604 6.9951 5.81927 6.02843 6.36866 5.20621C6.91805 4.38399 7.69892 3.74315 8.61252 3.36472C9.52612 2.9863 10.5314 2.88728 11.5013 3.0802C12.4712 3.27312 13.3621 3.74931 14.0613 4.44855C14.7605 5.14779 15.2367 6.03868 15.4296 7.00855C15.6226 7.97842 15.5236 8.98372 15.1451 9.89733C14.7667 10.8109 14.1259 11.5918 13.3036 12.1412C12.4814 12.6906 11.5148 12.9838 10.5259 12.9838C9.19984 12.9838 7.92811 12.457 6.99046 11.5194C6.0528 10.5817 5.52604 9.31001 5.52604 7.98397Z" fill="#F8F8F8"/>
</svg>
